<svg xmlns="http://www.w3.org/2000/svg" viewBox="0 0 64 64" role="img" aria-labelledby="title">
  <title id="title">NexusRBX</title>
  <path d="M11 7h40c5.5 0 10 4.5 10 10v32c0 5.5-4.5 10-10 10H11C5.5 59 1 54.5 1 49V17C1 11.5 5.5 7 11 7Z" fill="#17121B"/>
  <path d="M9 3h40c5.5 0 10 4.5 10 10v32c0 5.5-4.5 10-10 10H9C3.5 55-1 50.5-1 45V13C-1 7.5 3.5 3 9 3Z" fill="#7C3AED" stroke="#17121B" stroke-width="3"/>
  <path d="M16.5 43V18.5c0-2.6 3.2-3.8 4.9-1.8l21 25.4c1.7 2 4.9.8 4.9-1.8V17.5" fill="none" stroke="#FFF8E7" stroke-width="7" stroke-linecap="round" stroke-linejoin="round"/>
  <path d="m48.5 8.5 1.3 3.2 3.2 1.3-3.2 1.3-1.3 3.2-1.3-3.2L44 13l3.2-1.3 1.3-3.2Z" fill="#D9FF57" stroke="#17121B" stroke-width="1.5" stroke-linejoin="round"/>
  <circle cx="11.5" cy="48" r="3" fill="#FF6B6B" stroke="#17121B" stroke-width="1.5"/>
</svg>
